<?xml version="1.0" encoding="UTF-8"?>
<svg width="256" height="256" version="1.1" viewBox="0 0 256 256" xmlns="http://www.w3.org/2000/svg">
    <defs>
        <linearGradient id="fillGradient" y2="1">
            <stop stop-color="#b88056" offset="0"/>
            <stop stop-color="#8d542b" offset=".09"/>
            <stop stop-color="#98572a" offset=".6"/>
            <stop stop-color="#a05b2c" offset=".67"/>
            <stop stop-color="#a05b2c" offset=".9"/>
            <stop stop-color="#785726" offset="1"/>
        </linearGradient>
        <linearGradient id="strokeGradient" x1=".25" x2=".75" y2="1">
            <stop stop-color="#cfa98c" offset="0"/>
            <stop stop-color="#92694f" offset=".18"/>
            <stop stop-color="#423024" offset="1"/>
        </linearGradient>
        <linearGradient id="screenFillGradient" y2="1">
            <stop stop-color="#735030" offset="0"/>
            <stop stop-color="#1e130b" offset=".09"/>
            <stop stop-color="#24170f" offset=".64"/>
            <stop stop-color="#2c1c11" offset=".67"/>
            <stop stop-color="#160f09" offset=".9"/>
            <stop stop-color="#241a0f" offset="1"/>
        </linearGradient>
        <linearGradient id="screenStrokeGradient" x1="0.75" y1="1" x2="0.25" y2="0">
            <stop stop-color="#b57e4f" offset="0"/>
            <stop stop-color="#9b7053" offset=".42"/>
            <stop stop-color="#674a38" offset=".53"/>
            <stop stop-color="#33251d" offset="1"/>
        </linearGradient>
    </defs>
    <rect x="5" y="5" width="246" height="246" ry="56" fill="url(#fillGradient)" stroke="url(#strokeGradient)" stroke-width="10"/>
    <path d="m45 32
        c
        50-8 116-8 166 0
        10.935 1.785 18.12 9.08 20 20

        6 35 6 70 0 105
        -1.88 10.92-9.06 18.214-20 20

        -50 8-116 8-166 0
        -10.935-1.785-18.12-9.08-20-20

        -6-35-6-70 0-105
        1.88-10.92 9.06-18.214 20-20

        z" fill="url(#screenFillGradient)" stroke="url(#screenStrokeGradient)" stroke-width="8"/>
    <path d="m57.139 132.2v-14.665l24.6-13.05q3.1196-1.6174 6.8618-2.4803-3.7423-0.75474-6.8618-2.372l-24.6-13.05v-14.782l40.998 22.433v15.419z" fill="#d19961"/>
    <path d="m198.4 132.2-40.998-22.433v-15.419l40.998-22.529v14.665l-24.6 13.05q-3.1196 1.6174-6.8619 2.4803 3.7423 0.75473 6.8619 2.372l24.6 13.05z" fill="#d19961"/>
    <circle cx="205.27" cy="212.2" r="16.199" fill="none" stroke="#000" stroke-linejoin="round" stroke-width="9"/>
    <path d="m42.535 203.11h117.31" stroke="#000" stroke-linecap="round" stroke-linejoin="round" stroke-width="8"/>
    <path d="m42.535 215.52h117.31" stroke="#000" stroke-linecap="round" stroke-linejoin="round" stroke-width="8"/>
    <path d="m42.535 227.92h117.31" stroke="#000" stroke-linecap="round" stroke-linejoin="round" stroke-width="8"/>
</svg>
